<svg width="20" height="20" viewBox="0 0 20 20" fill="none" xmlns="http://www.w3.org/2000/svg">
<rect width="20" height="20" fill="#1E1E1E"/>
<rect x="-1375.5" y="-138.5" width="1479" height="571" rx="4.5" stroke="#9747FF" stroke-dasharray="10 5"/>
<rect width="1440" height="70" transform="translate(-1356 -25)" fill="#1A1A1A"/>
<path d="M17.6562 4.81879H15.2734C15.1953 4.17092 15.0065 3.57387 14.707 3.02763C14.3945 2.46869 14.0039 1.98279 13.5352 1.56993C13.0664 1.15708 12.5326 0.836319 11.9336 0.60766C11.3216 0.366299 10.6771 0.245617 10 0.245617C9.32292 0.245617 8.67839 0.366299 8.06641 0.60766C7.46745 0.836319 6.93359 1.15708 6.46484 1.56993C5.99609 1.98279 5.60547 2.46869 5.29297 3.02763C4.99349 3.57387 4.80469 4.17092 4.72656 4.81879H2.34375C2.1224 4.81879 1.93685 4.89183 1.78711 5.03792C1.63737 5.18401 1.5625 5.36503 1.5625 5.58098V18.9956C1.5625 19.2116 1.63737 19.3926 1.78711 19.5387C1.93685 19.6848 2.1224 19.7578 2.34375 19.7578H17.6562C17.8776 19.7578 18.0632 19.6848 18.2129 19.5387C18.3626 19.3926 18.4375 19.2116 18.4375 18.9956V5.58098C18.4375 5.36503 18.3626 5.18401 18.2129 5.03792C18.0632 4.89183 17.8776 4.81879 17.6562 4.81879ZM10 1.77001C10.9245 1.77001 11.735 2.06218 12.4316 2.64653C13.1283 3.23088 13.5482 3.95497 13.6914 4.81879H6.30859C6.45182 3.95497 6.87174 3.23088 7.56836 2.64653C8.26497 2.06218 9.07552 1.77001 10 1.77001ZM16.875 18.2334H3.125V6.34318H4.6875V8.62976C4.6875 8.84572 4.76237 9.02674 4.91211 9.17283C5.06185 9.31892 5.2474 9.39196 5.46875 9.39196C5.6901 9.39196 5.87565 9.31892 6.02539 9.17283C6.17513 9.02674 6.25 8.84572 6.25 8.62976V6.34318H13.75V8.62976C13.75 8.84572 13.8249 9.02674 13.9746 9.17283C14.1243 9.31892 14.3099 9.39196 14.5312 9.39196C14.7526 9.39196 14.9382 9.31892 15.0879 9.17283C15.2376 9.02674 15.3125 8.84572 15.3125 8.62976V6.34318H16.875V18.2334Z" fill="white"/>
<rect x="13" y="-9" width="18" height="18" rx="9" fill="#D39E80"/>
<path d="M22 4.09943C21.465 4.09943 21.0092 3.95384 20.6328 3.66264C20.2564 3.36908 19.9688 2.94413 19.7699 2.38778C19.571 1.82907 19.4716 1.15436 19.4716 0.363636C19.4716 -0.422349 19.571 -1.09351 19.7699 -1.64986C19.9711 -2.20857 20.2599 -2.63471 20.6364 -2.92827C21.0152 -3.2242 21.4697 -3.37216 22 -3.37216C22.5303 -3.37216 22.9837 -3.2242 23.3601 -2.92827C23.7389 -2.63471 24.0277 -2.20857 24.2266 -1.64986C24.4278 -1.09351 24.5284 -0.422349 24.5284 0.363636C24.5284 1.15436 24.429 1.82907 24.2301 2.38778C24.0312 2.94413 23.7436 3.36908 23.3672 3.66264C22.9908 3.95384 22.535 4.09943 22 4.09943ZM22 3.31818C22.5303 3.31818 22.9422 3.0625 23.2358 2.55114C23.5294 2.03977 23.6761 1.31061 23.6761 0.363636C23.6761 -0.266099 23.6087 -0.80232 23.4737 -1.24503C23.3411 -1.68774 23.1494 -2.02509 22.8984 -2.2571C22.6499 -2.48911 22.3504 -2.60511 22 -2.60511C21.4744 -2.60511 21.0637 -2.34588 20.7678 -1.82741C20.4718 -1.31132 20.3239 -0.580966 20.3239 0.363636C20.3239 0.993371 20.3902 1.52841 20.5227 1.96875C20.6553 2.40909 20.8459 2.74408 21.0945 2.97372C21.3454 3.20336 21.6473 3.31818 22 3.31818Z" fill="white"/>
</svg>
