<svg width="32" height="33" viewBox="0 0 32 33" fill="none" xmlns="http://www.w3.org/2000/svg">
<g id="twitter">
<path id="bg" d="M0 16.118C0 25.0198 7.16344 32.2361 16 32.2361C24.8366 32.2361 32 25.0198 32 16.118C32 7.21629 24.8366 0 16 0C7.16344 0 0 7.21629 0 16.118Z" fill="white"/>
<path id="twitter_2" d="M24 11.0814C23.4 11.3836 22.8 11.4843 22.1 11.5851C22.8 11.1821 23.3 10.5777 23.5 9.77179C22.9 10.1747 22.2 10.3762 21.4 10.5777C20.8 9.97326 19.9 9.57031 19 9.57031C16.9 9.57031 15.3 11.5851 15.8 13.5998C13.1 13.4991 10.7 12.1895 9 10.1747C8.1 11.6858 8.6 13.5998 10 14.6072C9.5 14.6072 9 14.4057 8.5 14.2042C8.5 15.7153 9.6 17.1256 11.1 17.5286C10.6 17.6293 10.1 17.7301 9.6 17.6293C10 18.9389 11.2 19.9463 12.7 19.9463C11.5 20.8529 9.7 21.3566 8 21.1552C9.5 22.0618 11.2 22.6662 13 22.6662C19.1 22.6662 22.5 17.5286 22.3 12.7939C23 12.391 23.6 11.7865 24 11.0814Z" fill="black"/>
</g>
</svg>
